<svg xmlns="http://www.w3.org/2000/svg" xmlns:xlink="http://www.w3.org/1999/xlink" width="500" zoomAndPan="magnify" viewBox="0 0 375 374.999991" height="500" preserveAspectRatio="xMidYMid meet" version="1.0"><defs><g/></defs><g fill="#93bac8" fill-opacity="1"><g transform="translate(70.517282, 163.605179)"><g><path d="M 5.15625 0 L 5.15625 -51.609375 L 46.4375 -51.609375 L 46.4375 -41.28125 L 15.484375 -41.28125 L 15.484375 -30.96875 L 46.4375 -30.96875 L 46.4375 -20.640625 L 15.484375 -20.640625 L 15.484375 -10.328125 L 46.4375 -10.328125 L 46.4375 0 Z M 46.4375 -10.328125 L 46.4375 -20.640625 L 56.765625 -20.640625 L 56.765625 -10.328125 Z M 46.4375 -30.96875 L 46.4375 -41.28125 L 56.765625 -41.28125 L 56.765625 -30.96875 Z M 46.4375 -30.96875 "/></g></g></g><g fill="#93bac8" fill-opacity="1"><g transform="translate(127.055815, 163.605179)"><g><path d="M 25.796875 0 L 25.796875 -20.640625 L 36.125 -20.640625 L 36.125 0 Z M 5.15625 -30.96875 L 5.15625 -51.609375 L 15.484375 -51.609375 L 15.484375 -30.96875 Z M 15.484375 -20.640625 L 15.484375 -30.96875 L 25.796875 -30.96875 L 25.796875 -20.640625 Z M 36.125 -20.640625 L 36.125 -30.96875 L 46.4375 -30.96875 L 46.4375 -20.640625 Z M 46.4375 -30.96875 L 46.4375 -51.609375 L 56.765625 -51.609375 L 56.765625 -30.96875 Z M 46.4375 -30.96875 "/></g></g></g><g fill="#93bac8" fill-opacity="1"><g transform="translate(183.594348, 163.605179)"><g><path d="M 25.796875 0 L 25.796875 -41.28125 L 5.15625 -41.28125 L 5.15625 -51.609375 L 56.765625 -51.609375 L 56.765625 -41.28125 L 36.125 -41.28125 L 36.125 0 Z M 25.796875 0 "/></g></g></g><g fill="#93bac8" fill-opacity="1"><g transform="translate(240.132874, 163.605179)"><g><path d="M 5.15625 0 L 5.15625 -51.609375 L 56.765625 -51.609375 L 56.765625 -41.28125 L 15.484375 -41.28125 L 15.484375 -30.96875 L 46.4375 -30.96875 L 46.4375 -20.640625 L 15.484375 -20.640625 L 15.484375 -10.328125 L 56.765625 -10.328125 L 56.765625 0 Z M 5.15625 0 "/></g></g></g><g fill="#5aff15" fill-opacity="1"><g transform="translate(74.834231, 163.605179)"><g><path d="M 5.15625 0 L 5.15625 -51.609375 L 46.4375 -51.609375 L 46.4375 -41.28125 L 15.484375 -41.28125 L 15.484375 -30.96875 L 46.4375 -30.96875 L 46.4375 -20.640625 L 15.484375 -20.640625 L 15.484375 -10.328125 L 46.4375 -10.328125 L 46.4375 0 Z M 46.4375 -10.328125 L 46.4375 -20.640625 L 56.765625 -20.640625 L 56.765625 -10.328125 Z M 46.4375 -30.96875 L 46.4375 -41.28125 L 56.765625 -41.28125 L 56.765625 -30.96875 Z M 46.4375 -30.96875 "/></g></g></g><g fill="#5aff15" fill-opacity="1"><g transform="translate(131.372764, 163.605179)"><g><path d="M 25.796875 0 L 25.796875 -20.640625 L 36.125 -20.640625 L 36.125 0 Z M 5.15625 -30.96875 L 5.15625 -51.609375 L 15.484375 -51.609375 L 15.484375 -30.96875 Z M 15.484375 -20.640625 L 15.484375 -30.96875 L 25.796875 -30.96875 L 25.796875 -20.640625 Z M 36.125 -20.640625 L 36.125 -30.96875 L 46.4375 -30.96875 L 46.4375 -20.640625 Z M 46.4375 -30.96875 L 46.4375 -51.609375 L 56.765625 -51.609375 L 56.765625 -30.96875 Z M 46.4375 -30.96875 "/></g></g></g><g fill="#5aff15" fill-opacity="1"><g transform="translate(187.911297, 163.605179)"><g><path d="M 25.796875 0 L 25.796875 -41.28125 L 5.15625 -41.28125 L 5.15625 -51.609375 L 56.765625 -51.609375 L 56.765625 -41.28125 L 36.125 -41.28125 L 36.125 0 Z M 25.796875 0 "/></g></g></g><g fill="#5aff15" fill-opacity="1"><g transform="translate(244.449823, 163.605179)"><g><path d="M 5.15625 0 L 5.15625 -51.609375 L 56.765625 -51.609375 L 56.765625 -41.28125 L 15.484375 -41.28125 L 15.484375 -30.96875 L 46.4375 -30.96875 L 46.4375 -20.640625 L 15.484375 -20.640625 L 15.484375 -10.328125 L 56.765625 -10.328125 L 56.765625 0 Z M 5.15625 0 "/></g></g></g><g fill="#cf7aa3" fill-opacity="1"><g transform="translate(68.065435, 244.247537)"><g><path d="M 29.953125 2.28125 C 25.316406 2.28125 20.597656 1.707031 15.796875 0.5625 C 10.992188 -0.570312 6.992188 -2.066406 3.796875 -3.921875 L 4.421875 -21.109375 L 5.6875 -21.109375 L 9.609375 -12.890625 C 10.785156 -10.535156 12.046875 -8.453125 13.390625 -6.640625 C 14.742188 -4.828125 16.597656 -3.414062 18.953125 -2.40625 C 20.640625 -1.5625 22.265625 -0.988281 23.828125 -0.6875 C 25.390625 -0.394531 27.140625 -0.25 29.078125 -0.25 C 34.210938 -0.25 38.273438 -1.640625 41.265625 -4.421875 C 44.265625 -7.203125 45.765625 -10.785156 45.765625 -15.171875 C 45.765625 -19.296875 44.75 -22.515625 42.71875 -24.828125 C 40.695312 -27.148438 37.453125 -29.40625 32.984375 -31.59375 L 27.8125 -33.875 C 20.5625 -37.082031 14.890625 -40.769531 10.796875 -44.9375 C 6.710938 -49.101562 4.671875 -54.644531 4.671875 -61.5625 C 4.671875 -66.53125 5.957031 -70.828125 8.53125 -74.453125 C 11.101562 -78.078125 14.6875 -80.859375 19.28125 -82.796875 C 23.875 -84.734375 29.242188 -85.703125 35.390625 -85.703125 C 39.859375 -85.703125 44.09375 -85.109375 48.09375 -83.921875 C 52.101562 -82.742188 55.582031 -81.144531 58.53125 -79.125 L 57.765625 -63.96875 L 56.5 -63.96875 L 51.328125 -73.4375 C 49.890625 -76.382812 48.453125 -78.46875 47.015625 -79.6875 C 45.585938 -80.914062 43.945312 -81.785156 42.09375 -82.296875 C 41 -82.628906 39.988281 -82.859375 39.0625 -82.984375 C 38.132812 -83.109375 36.953125 -83.171875 35.515625 -83.171875 C 31.222656 -83.171875 27.597656 -81.925781 24.640625 -79.4375 C 21.691406 -76.957031 20.21875 -73.609375 20.21875 -69.390625 C 20.21875 -65.097656 21.351562 -61.664062 23.625 -59.09375 C 25.90625 -56.519531 29.238281 -54.222656 33.625 -52.203125 L 39.4375 -49.671875 C 47.53125 -46.140625 53.34375 -42.367188 56.875 -38.359375 C 60.414062 -34.359375 62.1875 -29.195312 62.1875 -22.875 C 62.1875 -15.457031 59.382812 -9.410156 53.78125 -4.734375 C 48.175781 -0.0546875 40.234375 2.28125 29.953125 2.28125 Z M 29.953125 2.28125 "/></g></g></g><g fill="#cf7aa3" fill-opacity="1"><g transform="translate(133.91792, 244.247537)"><g><path d="M 2.78125 0 L 2.78125 -1.265625 L 5.3125 -2.28125 C 7 -2.863281 8.113281 -3.660156 8.65625 -4.671875 C 9.207031 -5.679688 9.484375 -7.03125 9.484375 -8.71875 L 9.484375 -74.703125 C 9.484375 -76.390625 9.226562 -77.738281 8.71875 -78.75 C 8.21875 -79.757812 7.082031 -80.5625 5.3125 -81.15625 L 2.78125 -82.15625 L 2.78125 -83.421875 L 35.265625 -83.421875 L 35.265625 -82.15625 L 32.734375 -81.15625 C 31.054688 -80.5625 29.941406 -79.757812 29.390625 -78.75 C 28.835938 -77.738281 28.5625 -76.390625 28.5625 -74.703125 L 28.5625 -8.71875 C 28.5625 -7.03125 28.835938 -5.703125 29.390625 -4.734375 C 29.941406 -3.765625 31.054688 -2.945312 32.734375 -2.28125 L 35.265625 -1.265625 L 35.265625 0 Z M 2.78125 0 "/></g></g></g><g fill="#cf7aa3" fill-opacity="1"><g transform="translate(171.963166, 244.247537)"><g><path d="M 2.53125 0 L 2.53125 -1.515625 L 46.390625 -80.90625 L 22.375 -80.90625 C 19.59375 -80.90625 17.335938 -80.269531 15.609375 -79 C 13.878906 -77.738281 12.34375 -75.882812 11 -73.4375 L 5.1875 -63.203125 L 3.921875 -63.203125 L 4.796875 -83.421875 L 66.609375 -83.421875 L 66.609375 -81.90625 L 22.75 -2.53125 L 50.3125 -2.53125 C 53.09375 -2.53125 55.300781 -3.179688 56.9375 -4.484375 C 58.582031 -5.796875 60.082031 -7.671875 61.4375 -10.109375 L 66.875 -20.21875 L 68.140625 -20.21875 L 67.25 0 Z M 2.53125 0 "/></g></g></g><g fill="#cf7aa3" fill-opacity="1"><g transform="translate(242.745119, 244.247537)"><g><path d="M 2.78125 0 L 2.78125 -1.265625 L 5.6875 -2.40625 C 7.125 -2.988281 8.113281 -3.765625 8.65625 -4.734375 C 9.207031 -5.703125 9.484375 -7.03125 9.484375 -8.71875 L 9.484375 -74.703125 C 9.484375 -76.390625 9.25 -77.71875 8.78125 -78.6875 C 8.320312 -79.65625 7.289062 -80.4375 5.6875 -81.03125 L 2.78125 -82.15625 L 2.78125 -83.421875 L 63.328125 -83.421875 L 64.09375 -63.96875 L 62.828125 -63.96875 L 57.390625 -75.84375 C 56.628906 -77.363281 55.828125 -78.585938 54.984375 -79.515625 C 54.140625 -80.441406 52.875 -80.90625 51.1875 -80.90625 L 28.4375 -80.90625 L 28.4375 -44.375 L 41.96875 -44.375 C 43.65625 -44.375 44.941406 -44.8125 45.828125 -45.6875 C 46.710938 -46.570312 47.488281 -47.773438 48.15625 -49.296875 L 50.6875 -54.359375 L 51.953125 -54.359375 L 51.953125 -31.59375 L 50.6875 -31.59375 L 48.15625 -36.90625 C 47.394531 -38.425781 46.59375 -39.628906 45.75 -40.515625 C 44.914062 -41.398438 43.65625 -41.84375 41.96875 -41.84375 L 28.4375 -41.84375 L 28.4375 -2.53125 L 53.96875 -2.53125 C 55.65625 -2.53125 56.960938 -2.972656 57.890625 -3.859375 C 58.816406 -4.742188 59.578125 -5.984375 60.171875 -7.578125 L 65.359375 -19.46875 L 66.609375 -19.46875 L 65.859375 0 Z M 2.78125 0 "/></g></g></g><g fill="#5aff15" fill-opacity="1"><g transform="translate(63.748486, 244.247537)"><g><path d="M 29.953125 2.28125 C 25.316406 2.28125 20.597656 1.707031 15.796875 0.5625 C 10.992188 -0.570312 6.992188 -2.066406 3.796875 -3.921875 L 4.421875 -21.109375 L 5.6875 -21.109375 L 9.609375 -12.890625 C 10.785156 -10.535156 12.046875 -8.453125 13.390625 -6.640625 C 14.742188 -4.828125 16.597656 -3.414062 18.953125 -2.40625 C 20.640625 -1.5625 22.265625 -0.988281 23.828125 -0.6875 C 25.390625 -0.394531 27.140625 -0.25 29.078125 -0.25 C 34.210938 -0.25 38.273438 -1.640625 41.265625 -4.421875 C 44.265625 -7.203125 45.765625 -10.785156 45.765625 -15.171875 C 45.765625 -19.296875 44.75 -22.515625 42.71875 -24.828125 C 40.695312 -27.148438 37.453125 -29.40625 32.984375 -31.59375 L 27.8125 -33.875 C 20.5625 -37.082031 14.890625 -40.769531 10.796875 -44.9375 C 6.710938 -49.101562 4.671875 -54.644531 4.671875 -61.5625 C 4.671875 -66.53125 5.957031 -70.828125 8.53125 -74.453125 C 11.101562 -78.078125 14.6875 -80.859375 19.28125 -82.796875 C 23.875 -84.734375 29.242188 -85.703125 35.390625 -85.703125 C 39.859375 -85.703125 44.09375 -85.109375 48.09375 -83.921875 C 52.101562 -82.742188 55.582031 -81.144531 58.53125 -79.125 L 57.765625 -63.96875 L 56.5 -63.96875 L 51.328125 -73.4375 C 49.890625 -76.382812 48.453125 -78.46875 47.015625 -79.6875 C 45.585938 -80.914062 43.945312 -81.785156 42.09375 -82.296875 C 41 -82.628906 39.988281 -82.859375 39.0625 -82.984375 C 38.132812 -83.109375 36.953125 -83.171875 35.515625 -83.171875 C 31.222656 -83.171875 27.597656 -81.925781 24.640625 -79.4375 C 21.691406 -76.957031 20.21875 -73.609375 20.21875 -69.390625 C 20.21875 -65.097656 21.351562 -61.664062 23.625 -59.09375 C 25.90625 -56.519531 29.238281 -54.222656 33.625 -52.203125 L 39.4375 -49.671875 C 47.53125 -46.140625 53.34375 -42.367188 56.875 -38.359375 C 60.414062 -34.359375 62.1875 -29.195312 62.1875 -22.875 C 62.1875 -15.457031 59.382812 -9.410156 53.78125 -4.734375 C 48.175781 -0.0546875 40.234375 2.28125 29.953125 2.28125 Z M 29.953125 2.28125 "/></g></g></g><g fill="#5aff15" fill-opacity="1"><g transform="translate(129.60097, 244.247537)"><g><path d="M 2.78125 0 L 2.78125 -1.265625 L 5.3125 -2.28125 C 7 -2.863281 8.113281 -3.660156 8.65625 -4.671875 C 9.207031 -5.679688 9.484375 -7.03125 9.484375 -8.71875 L 9.484375 -74.703125 C 9.484375 -76.390625 9.226562 -77.738281 8.71875 -78.75 C 8.21875 -79.757812 7.082031 -80.5625 5.3125 -81.15625 L 2.78125 -82.15625 L 2.78125 -83.421875 L 35.265625 -83.421875 L 35.265625 -82.15625 L 32.734375 -81.15625 C 31.054688 -80.5625 29.941406 -79.757812 29.390625 -78.75 C 28.835938 -77.738281 28.5625 -76.390625 28.5625 -74.703125 L 28.5625 -8.71875 C 28.5625 -7.03125 28.835938 -5.703125 29.390625 -4.734375 C 29.941406 -3.765625 31.054688 -2.945312 32.734375 -2.28125 L 35.265625 -1.265625 L 35.265625 0 Z M 2.78125 0 "/></g></g></g><g fill="#5aff15" fill-opacity="1"><g transform="translate(167.646217, 244.247537)"><g><path d="M 2.53125 0 L 2.53125 -1.515625 L 46.390625 -80.90625 L 22.375 -80.90625 C 19.59375 -80.90625 17.335938 -80.269531 15.609375 -79 C 13.878906 -77.738281 12.34375 -75.882812 11 -73.4375 L 5.1875 -63.203125 L 3.921875 -63.203125 L 4.796875 -83.421875 L 66.609375 -83.421875 L 66.609375 -81.90625 L 22.75 -2.53125 L 50.3125 -2.53125 C 53.09375 -2.53125 55.300781 -3.179688 56.9375 -4.484375 C 58.582031 -5.796875 60.082031 -7.671875 61.4375 -10.109375 L 66.875 -20.21875 L 68.140625 -20.21875 L 67.25 0 Z M 2.53125 0 "/></g></g></g><g fill="#5aff15" fill-opacity="1"><g transform="translate(238.42817, 244.247537)"><g><path d="M 2.78125 0 L 2.78125 -1.265625 L 5.6875 -2.40625 C 7.125 -2.988281 8.113281 -3.765625 8.65625 -4.734375 C 9.207031 -5.703125 9.484375 -7.03125 9.484375 -8.71875 L 9.484375 -74.703125 C 9.484375 -76.390625 9.25 -77.71875 8.78125 -78.6875 C 8.320312 -79.65625 7.289062 -80.4375 5.6875 -81.03125 L 2.78125 -82.15625 L 2.78125 -83.421875 L 63.328125 -83.421875 L 64.09375 -63.96875 L 62.828125 -63.96875 L 57.390625 -75.84375 C 56.628906 -77.363281 55.828125 -78.585938 54.984375 -79.515625 C 54.140625 -80.441406 52.875 -80.90625 51.1875 -80.90625 L 28.4375 -80.90625 L 28.4375 -44.375 L 41.96875 -44.375 C 43.65625 -44.375 44.941406 -44.8125 45.828125 -45.6875 C 46.710938 -46.570312 47.488281 -47.773438 48.15625 -49.296875 L 50.6875 -54.359375 L 51.953125 -54.359375 L 51.953125 -31.59375 L 50.6875 -31.59375 L 48.15625 -36.90625 C 47.394531 -38.425781 46.59375 -39.628906 45.75 -40.515625 C 44.914062 -41.398438 43.65625 -41.84375 41.96875 -41.84375 L 28.4375 -41.84375 L 28.4375 -2.53125 L 53.96875 -2.53125 C 55.65625 -2.53125 56.960938 -2.972656 57.890625 -3.859375 C 58.816406 -4.742188 59.578125 -5.984375 60.171875 -7.578125 L 65.359375 -19.46875 L 66.609375 -19.46875 L 65.859375 0 Z M 2.78125 0 "/></g></g></g></svg>